<mxfile host="app.diagrams.net" modified="2024-03-21T18:09:06.000Z" agent="Mozilla/5.0 (Windows NT 10.0; Win64; x64) AppleWebKit/537.36 (KHTML, like Gecko) Chrome/122.0.0.0 Safari/537.36" etag="of-qcjL6eoEo21vetcIr" version="24.0.7" type="google">
  <diagram name="Page-1" id="f6uQ7SMpZrMVOyco3G_C">
    <mxGraphModel grid="1" page="0" gridSize="10" guides="1" tooltips="1" connect="1" arrows="1" fold="1" pageScale="1" pageWidth="850" pageHeight="1100" math="0" shadow="0">
      <root>
        <mxCell id="0" />
        <mxCell id="1" parent="0" />
        <mxCell id="obD3Oja1CdgRieMBPi74-22" value="" style="rounded=1;whiteSpace=wrap;html=1;fillColor=#dae8fc;strokeColor=#6c8ebf;" vertex="1" parent="1">
          <mxGeometry x="10" y="510" width="280" height="280" as="geometry" />
        </mxCell>
        <mxCell id="obD3Oja1CdgRieMBPi74-3" value="" style="outlineConnect=0;dashed=0;verticalLabelPosition=bottom;verticalAlign=top;align=center;html=1;shape=mxgraph.aws3.ec2;fillColor=#F58534;gradientColor=none;" vertex="1" parent="1">
          <mxGeometry x="70" y="470" width="76.5" height="93" as="geometry" />
        </mxCell>
        <mxCell id="obD3Oja1CdgRieMBPi74-5" value="&lt;b&gt;&lt;font style=&quot;font-size: 13px;&quot;&gt;EC2 Instance&lt;/font&gt;&lt;/b&gt;" style="text;strokeColor=none;align=center;fillColor=none;html=1;verticalAlign=middle;whiteSpace=wrap;rounded=0;" vertex="1" parent="1">
          <mxGeometry x="10" y="480" width="60" height="30" as="geometry" />
        </mxCell>
        <mxCell id="obD3Oja1CdgRieMBPi74-13" style="edgeStyle=orthogonalEdgeStyle;rounded=0;orthogonalLoop=1;jettySize=auto;html=1;exitX=0.5;exitY=0.5;exitDx=0;exitDy=0;exitPerimeter=0;strokeWidth=2;flowAnimation=1;" edge="1" parent="1">
          <mxGeometry relative="1" as="geometry">
            <mxPoint x="440" y="601.5" as="targetPoint" />
            <mxPoint x="290" y="601.5" as="sourcePoint" />
            <Array as="points">
              <mxPoint x="430" y="601.5" />
              <mxPoint x="430" y="601.5" />
            </Array>
          </mxGeometry>
        </mxCell>
        <mxCell id="obD3Oja1CdgRieMBPi74-20" value="" style="shape=image;html=1;verticalAlign=top;verticalLabelPosition=bottom;labelBackgroundColor=#ffffff;imageAspect=0;aspect=fixed;image=https://cdn1.iconfinder.com/data/icons/hawcons/32/700036-icon-78-document-file-java-128.png" vertex="1" parent="1">
          <mxGeometry x="190" y="563" width="60" height="60" as="geometry" />
        </mxCell>
        <mxCell id="obD3Oja1CdgRieMBPi74-21" value="&lt;b&gt;&lt;font style=&quot;font-size: 13px;&quot;&gt;Kinesis Agent&lt;/font&gt;&lt;/b&gt;" style="text;strokeColor=none;align=center;fillColor=none;html=1;verticalAlign=middle;whiteSpace=wrap;rounded=0;" vertex="1" parent="1">
          <mxGeometry x="190" y="623" width="60" height="30" as="geometry" />
        </mxCell>
        <mxCell id="obD3Oja1CdgRieMBPi74-26" value="" style="verticalLabelPosition=bottom;verticalAlign=top;html=1;shape=mxgraph.basic.flash;fillColor=#6a00ff;strokeColor=#3700CC;fontColor=#ffffff;rotation=15;" vertex="1" parent="1">
          <mxGeometry x="119.99999999999999" y="710" width="30" height="60" as="geometry" />
        </mxCell>
        <mxCell id="obD3Oja1CdgRieMBPi74-27" value="&lt;font style=&quot;font-size: 13px;&quot;&gt;&lt;b&gt;Streaming Data&lt;/b&gt;&lt;/font&gt;" style="text;strokeColor=none;align=center;fillColor=none;html=1;verticalAlign=middle;whiteSpace=wrap;rounded=0;" vertex="1" parent="1">
          <mxGeometry x="146.5" y="740" width="60" height="30" as="geometry" />
        </mxCell>
        <mxCell id="obD3Oja1CdgRieMBPi74-28" value="" style="endArrow=classic;html=1;rounded=0;entryX=0;entryY=0.5;entryDx=0;entryDy=0;exitX=0.565;exitY=0;exitDx=0;exitDy=0;exitPerimeter=0;strokeWidth=2;flowAnimation=1;" edge="1" parent="1" source="obD3Oja1CdgRieMBPi74-26">
          <mxGeometry width="50" height="50" relative="1" as="geometry">
            <mxPoint x="144.648126714339" y="696.5269223492778" as="sourcePoint" />
            <mxPoint x="190" y="623" as="targetPoint" />
          </mxGeometry>
        </mxCell>
        <mxCell id="obD3Oja1CdgRieMBPi74-29" value="" style="sketch=0;points=[[0,0,0],[0.25,0,0],[0.5,0,0],[0.75,0,0],[1,0,0],[0,1,0],[0.25,1,0],[0.5,1,0],[0.75,1,0],[1,1,0],[0,0.25,0],[0,0.5,0],[0,0.75,0],[1,0.25,0],[1,0.5,0],[1,0.75,0]];outlineConnect=0;fontColor=#232F3E;fillColor=#7AA116;strokeColor=#ffffff;dashed=0;verticalLabelPosition=bottom;verticalAlign=top;align=center;html=1;fontSize=12;fontStyle=0;aspect=fixed;shape=mxgraph.aws4.resourceIcon;resIcon=mxgraph.aws4.s3;" vertex="1" parent="1">
          <mxGeometry x="640" y="563" width="78" height="78" as="geometry" />
        </mxCell>
        <mxCell id="obD3Oja1CdgRieMBPi74-30" value="&lt;b&gt;&lt;font style=&quot;font-size: 13px;&quot;&gt;Amazon S3 Landing&amp;nbsp;&lt;/font&gt;&lt;/b&gt;" style="text;strokeColor=none;align=center;fillColor=none;html=1;verticalAlign=middle;whiteSpace=wrap;rounded=0;" vertex="1" parent="1">
          <mxGeometry x="580" y="635" width="60" height="30" as="geometry" />
        </mxCell>
        <mxCell id="obD3Oja1CdgRieMBPi74-31" value="" style="endArrow=classic;html=1;rounded=0;strokeWidth=2;flowAnimation=1;" edge="1" parent="1">
          <mxGeometry width="50" height="50" relative="1" as="geometry">
            <mxPoint x="520" y="603.8333333333333" as="sourcePoint" />
            <mxPoint x="640" y="600.17" as="targetPoint" />
          </mxGeometry>
        </mxCell>
        <mxCell id="ITbBLpRveGSP_C04sevo-1" value="&lt;font style=&quot;font-size: 13px;&quot;&gt;&lt;b&gt;Data Send To Firehose&lt;/b&gt;&lt;/font&gt;" style="text;strokeColor=none;align=center;fillColor=none;html=1;verticalAlign=middle;whiteSpace=wrap;rounded=0;" vertex="1" parent="1">
          <mxGeometry x="300" y="608" width="120" height="30" as="geometry" />
        </mxCell>
        <mxCell id="ITbBLpRveGSP_C04sevo-2" value="" style="endArrow=classic;html=1;rounded=0;strokeWidth=2;" edge="1" parent="1" target="obD3Oja1CdgRieMBPi74-7">
          <mxGeometry width="50" height="50" relative="1" as="geometry">
            <mxPoint x="480" y="601.5" as="sourcePoint" />
            <mxPoint x="600" y="601.5" as="targetPoint" />
          </mxGeometry>
        </mxCell>
        <mxCell id="obD3Oja1CdgRieMBPi74-7" value="Amazon Kinesis Data Firehose" style="sketch=0;outlineConnect=0;fontColor=#232F3E;gradientColor=none;strokeColor=#ffffff;fillColor=#232F3E;dashed=0;verticalLabelPosition=middle;verticalAlign=bottom;align=center;html=1;whiteSpace=wrap;fontSize=10;fontStyle=1;spacing=3;shape=mxgraph.aws4.productIcon;prIcon=mxgraph.aws4.kinesis_data_firehose;" vertex="1" parent="1">
          <mxGeometry x="440" y="563" width="80" height="120" as="geometry" />
        </mxCell>
        <mxCell id="LAzTbqFGE4sg3svnlOIO-1" value="" style="sketch=0;points=[[0,0,0],[0.25,0,0],[0.5,0,0],[0.75,0,0],[1,0,0],[0,1,0],[0.25,1,0],[0.5,1,0],[0.75,1,0],[1,1,0],[0,0.25,0],[0,0.5,0],[0,0.75,0],[1,0.25,0],[1,0.5,0],[1,0.75,0]];outlineConnect=0;fontColor=#232F3E;fillColor=#7AA116;strokeColor=#ffffff;dashed=0;verticalLabelPosition=bottom;verticalAlign=top;align=center;html=1;fontSize=12;fontStyle=0;aspect=fixed;shape=mxgraph.aws4.resourceIcon;resIcon=mxgraph.aws4.s3;" vertex="1" parent="1">
          <mxGeometry x="640" y="750" width="78" height="78" as="geometry" />
        </mxCell>
        <mxCell id="LAzTbqFGE4sg3svnlOIO-2" value="" style="sketch=0;points=[[0,0,0],[0.25,0,0],[0.5,0,0],[0.75,0,0],[1,0,0],[0,1,0],[0.25,1,0],[0.5,1,0],[0.75,1,0],[1,1,0],[0,0.25,0],[0,0.5,0],[0,0.75,0],[1,0.25,0],[1,0.5,0],[1,0.75,0]];outlineConnect=0;fontColor=#232F3E;fillColor=#7AA116;strokeColor=#ffffff;dashed=0;verticalLabelPosition=bottom;verticalAlign=top;align=center;html=1;fontSize=12;fontStyle=0;aspect=fixed;shape=mxgraph.aws4.resourceIcon;resIcon=mxgraph.aws4.s3;" vertex="1" parent="1">
          <mxGeometry x="640" y="930" width="78" height="78" as="geometry" />
        </mxCell>
        <mxCell id="LAzTbqFGE4sg3svnlOIO-3" value="&lt;b&gt;&lt;font style=&quot;font-size: 13px;&quot;&gt;Amazon S3 PROCESSING&amp;nbsp;&lt;/font&gt;&lt;/b&gt;" style="text;strokeColor=none;align=center;fillColor=none;html=1;verticalAlign=middle;whiteSpace=wrap;rounded=0;" vertex="1" parent="1">
          <mxGeometry x="560" y="774" width="60" height="30" as="geometry" />
        </mxCell>
        <mxCell id="LAzTbqFGE4sg3svnlOIO-4" value="" style="endArrow=classic;html=1;rounded=0;entryX=0.5;entryY=0;entryDx=0;entryDy=0;entryPerimeter=0;flowAnimation=1;" edge="1" parent="1" source="obD3Oja1CdgRieMBPi74-29" target="LAzTbqFGE4sg3svnlOIO-1">
          <mxGeometry width="50" height="50" relative="1" as="geometry">
            <mxPoint x="660" y="710" as="sourcePoint" />
            <mxPoint x="710" y="660" as="targetPoint" />
          </mxGeometry>
        </mxCell>
        <mxCell id="LAzTbqFGE4sg3svnlOIO-5" value="" style="endArrow=classic;html=1;rounded=0;entryX=0.5;entryY=0;entryDx=0;entryDy=0;entryPerimeter=0;exitX=0.5;exitY=1;exitDx=0;exitDy=0;exitPerimeter=0;flowAnimation=1;" edge="1" parent="1" source="LAzTbqFGE4sg3svnlOIO-1" target="LAzTbqFGE4sg3svnlOIO-2">
          <mxGeometry width="50" height="50" relative="1" as="geometry">
            <mxPoint x="680" y="850" as="sourcePoint" />
            <mxPoint x="680" y="920" as="targetPoint" />
          </mxGeometry>
        </mxCell>
        <mxCell id="LAzTbqFGE4sg3svnlOIO-7" value="&lt;b&gt;S3 PROCESSED&lt;/b&gt;" style="text;strokeColor=none;align=center;fillColor=none;html=1;verticalAlign=middle;whiteSpace=wrap;rounded=0;" vertex="1" parent="1">
          <mxGeometry x="570" y="940" width="60" height="30" as="geometry" />
        </mxCell>
      </root>
    </mxGraphModel>
  </diagram>
</mxfile>
